HIERARCHY
ROOT Hips
{
	OFFSET	0.000000	0.000000	0.000000
	CHANNELS 6 Xposition Yposition Zposition Zrotation Xrotation Yrotation
	JOINT LeftHip
	{
		OFFSET	4.740440	-3.195970	-0.322709
		CHANNELS 3 Zrotation Xrotation Yrotation
		JOINT LeftKnee
		{
			OFFSET	-1.605680	-15.592300	1.005510
			CHANNELS 3 Zrotation Xrotation Yrotation
			JOINT LeftAnkle
			{
				OFFSET	-0.632401	-16.421000	-1.413730
				CHANNELS 3 Zrotation Xrotation Yrotation
				End Site
				{
					OFFSET	0.008423	-2.933000	-1.776750
				}
			}
		}
	}
	JOINT RightHip
	{
		OFFSET	-4.740440	-3.195970	-0.322709
		CHANNELS 3 Zrotation Xrotation Yrotation
		JOINT RightKnee
		{
			OFFSET	1.605680	-15.592300	1.005510
			CHANNELS 3 Zrotation Xrotation Yrotation
			JOINT RightAnkle
			{
				OFFSET	0.632401	-16.421000	-1.413730
				CHANNELS 3 Zrotation Xrotation Yrotation
				End Site
				{
					OFFSET	-0.008423	-2.933000	-1.776750
				}
			}
		}
	}
	JOINT Chest
	{
		OFFSET	0.000000	3.468200	0.078401
		CHANNELS 3 Zrotation Xrotation Yrotation
		JOINT LeftCollar
		{
			OFFSET	3.857650	15.070700	-0.011583
			CHANNELS 3 Zrotation Xrotation Yrotation
			JOINT LeftShoulder
			{
				OFFSET	3.979720	-1.940530	-0.165223
				CHANNELS 3 Zrotation Xrotation Yrotation
				JOINT LeftElbow
				{
					OFFSET	0.615844	-10.986600	-0.673886
					CHANNELS 3 Zrotation Xrotation Yrotation
					JOINT LeftWrist
					{
						OFFSET	0.826843	-10.854500	1.034220
						CHANNELS 3 Zrotation Xrotation Yrotation
						End Site
						{
							OFFSET	-1.679080	-8.456540	0.936217
						}
					}
				}
			}
		}
		JOINT RightCollar
		{
			OFFSET	-3.857650	15.070700	-0.011583
			CHANNELS 3 Zrotation Xrotation Yrotation
			JOINT RightShoulder
			{
				OFFSET	-3.979720	-1.940530	-0.165223
				CHANNELS 3 Zrotation Xrotation Yrotation
				JOINT RightElbow
				{
					OFFSET	-0.615845	-10.986600	-0.673886
					CHANNELS 3 Zrotation Xrotation Yrotation
					JOINT RightWrist
					{
						OFFSET	-0.826843	-10.854500	1.034220
						CHANNELS 3 Zrotation Xrotation Yrotation
						End Site
						{
							OFFSET	1.679080	-8.456540	0.936217
						}
					}
				}
			}
		}
		JOINT Neck
		{
			OFFSET	0.000000	15.101400	0.055730
			CHANNELS 3 Zrotation Xrotation Yrotation
			JOINT Head
			{
				OFFSET	0.000000	4.185120	1.488260
				CHANNELS 3 Zrotation Xrotation Yrotation
				End Site
				{
					OFFSET	0.000000	7.773420	-0.106016
				}
			}
		}
	}
}
MOTION
Frames:     7
Frame Time: 0.016667
3.587060	38.009766	-5.424835	5.233929	-9.396833	2.055824	-0.402468	4.088998	3.834055	-0.604021	5.156710	4.225373	-2.168507	0.361381	1.540356	-14.119353	-1.260601	-2.026832	-2.109759	6.779202	2.888693	10.691002	3.519925	8.913500	-4.361835	11.140650	1.959870	-5.958028	1.188578	-0.105466	6.368706	-2.243277	1.777310	-5.204068	-11.612445	-10.448088	15.917531	2.743964	-23.168703	-0.836275	1.781489	4.109739	-4.482892	-4.891004	3.116634	-1.282473	-10.375569	13.641760	-15.957504	-4.263965	13.376446	1.379592	11.049815	0.085195	7.243488	6.468861	-19.066750	
3.585659	38.009964	-5.428026	5.247463	-9.398414	2.049882	-0.417545	4.087408	3.829627	-0.603731	5.160078	4.238163	-2.168507	0.361381	1.540356	-14.130814	-1.273984	-2.020810	-2.112219	6.792429	2.891627	10.691002	3.519925	8.913500	-4.355198	11.105672	1.960466	-5.973066	1.205533	-0.116538	6.373267	-2.248863	1.795743	-5.211738	-11.582910	-10.468748	15.925008	2.729987	-23.166584	-0.863078	1.807874	4.105153	-4.475993	-4.905035	3.125955	-1.273740	-10.370809	13.642810	-15.963906	-4.250330	13.362470	1.362115	11.079270	0.087894	7.238091	6.476733	-19.064545	
3.585107	38.009132	-5.431450	5.248058	-9.398486	2.049608	-0.419247	4.084256	3.818613	-0.603465	5.163120	4.249708	-2.168507	0.361381	1.540356	-14.129808	-1.286819	-2.022702	-2.114580	6.805105	2.894427	10.691002	3.519925	8.913500	-4.346207	11.096762	1.960906	-5.977741	1.195345	-0.135855	6.372440	-2.236553	1.812503	-5.214208	-11.572688	-10.475540	15.933413	2.714728	-23.179518	-0.878705	1.806925	4.094879	-4.468403	-4.903385	3.135255	-1.271068	-10.369012	13.643153	-15.966268	-4.244500	13.357687	1.357213	11.079108	0.085464	7.254768	6.453187	-19.049524	
3.584596	38.008259	-5.434879	5.248058	-9.398486	2.049608	-0.420301	4.081114	3.807589	-0.603214	5.166067	4.260883	-2.168507	0.361381	1.540356	-14.128235	-1.299608	-2.024987	-2.116937	6.817738	2.897236	10.691002	3.519925	8.913500	-4.316726	11.069343	1.961101	-6.000361	1.205049	-0.157145	6.368138	-2.216795	1.828599	-5.213769	-11.568553	-10.497784	15.932755	2.717013	-23.158466	-0.912698	1.825671	4.081406	-4.462084	-4.915842	3.143786	-1.263385	-10.364211	13.644075	-15.969322	-4.228152	13.355726	1.331246	11.106102	0.078724	7.279741	6.412154	-19.028408	
3.584327	38.007790	-5.436708	5.248058	-9.398486	2.049608	-0.421279	4.078195	3.797326	-0.602985	5.168808	4.271288	-2.168507	0.361381	1.540356	-14.127399	-1.306430	-2.026225	-2.118193	6.824474	2.898753	10.691002	3.519925	8.913500	-4.297607	11.051559	1.961243	-6.008468	1.209393	-0.175830	6.361238	-2.208375	1.844239	-5.215786	-11.559789	-10.505439	15.932301	2.718174	-23.150671	-0.933831	1.839261	4.073855	-4.458671	-4.918113	3.148135	-1.259311	-10.368013	13.644419	-15.969734	-4.217895	13.359201	1.313935	11.124423	0.074411	7.288993	6.381439	-18.999151	
3.583503	38.006371	-5.442251	5.248058	-9.398486	2.049608	-0.421815	4.076650	3.791874	-0.602848	5.170255	4.276816	-2.168507	0.361381	1.540356	-14.124855	-1.327104	-2.029933	-2.122011	6.844893	2.903312	10.691002	3.519925	8.913500	-4.279083	11.034325	1.961380	-6.011369	1.217769	-0.192930	6.355529	-2.222421	1.860122	-5.222352	-11.530947	-10.529789	15.930819	2.721924	-23.125551	-0.960041	1.843435	4.059102	-4.449069	-4.924937	3.160388	-1.253800	-10.359252	13.645224	-15.970135	-4.207899	13.362597	1.297158	11.142182	0.070239	7.274809	6.380748	-18.977646	
3.583242	38.005920	-5.444012	5.248058	-9.398486	2.049608	-0.421815	4.076650	3.791874	-0.602848	5.170255	4.276816	-2.168507	0.361381	1.540356	-14.124046	-1.333672	-2.031097	-2.123223	6.851377	2.904744	10.691002	3.519925	8.913500	-4.269964	11.025845	1.961442	-6.005799	1.217217	-0.208655	6.344423	-2.219318	1.874173	-5.224340	-11.521870	-10.538372	15.930293	2.723247	-23.116711	-0.971498	1.847760	4.053736	-4.445915	-4.926922	3.164405	-1.251384	-10.358673	13.645481	-15.970354	-4.202603	13.364392	1.288898	11.150921	0.068198	7.270406	6.372279	-18.959045	
